<svg xmlns="http://www.w3.org/2000/svg" xmlns:xlink="http://www.w3.org/1999/xlink" x="0" y="0" width="661.3333740234375" height="301.3333435058594" style="
        width:661.3333740234375px;
        height:301.3333435058594px;
        background: #FFF;
        fill: none;
">
        
        
        <svg xmlns="http://www.w3.org/2000/svg" class="role-diagram-draw-area"><g class="shapes-region" style="stroke: black; fill: none;"><g class="composite-shape"><path class="real" d=" M170,200 C170,192.27 183.43,186 200,186 C216.57,186 230,192.27 230,200 C230,207.73 216.57,214 200,214 C183.43,214 170,207.73 170,200 Z" style="stroke-width: 1; stroke: rgb(0, 0, 0); fill: rgb(139, 196, 255); fill-opacity: 0.36;"/></g><g class="composite-shape"><path class="real" d=" M169,150 C169,142.27 182.43,136 199,136 C215.57,136 229,142.27 229,150 C229,157.73 215.57,164 199,164 C182.43,164 169,157.73 169,150 Z" style="stroke-width: 1; stroke: rgb(0, 0, 0); fill: none; fill-opacity: 1;"/></g><g class="composite-shape"><path class="real" d=" M270,100 C270,92.27 283.43,86 300,86 C316.57,86 330,92.27 330,100 C330,107.73 316.57,114 300,114 C283.43,114 270,107.73 270,100 Z" style="stroke-width: 1; stroke: rgb(0, 0, 0); fill: rgb(139, 196, 255); fill-opacity: 0.36;"/></g><g class="composite-shape"><path class="real" d=" M270,200 C270,192.27 283.43,186 300,186 C316.57,186 330,192.27 330,200 C330,207.73 316.57,214 300,214 C283.43,214 270,207.73 270,200 Z" style="stroke-width: 1; stroke: rgb(0, 0, 0); fill: rgb(139, 196, 255); fill-opacity: 0.36;"/></g><g class="composite-shape"><path class="real" d=" M270,151 C270,143.27 283.43,137 300,137 C316.57,137 330,143.27 330,151 C330,158.73 316.57,165 300,165 C283.43,165 270,158.73 270,151 Z" style="stroke-width: 1; stroke: rgb(0, 0, 0); fill: none; fill-opacity: 1;"/></g><g class="composite-shape"><path class="real" d=" M371,150 C371,142.27 384.43,136 401,136 C417.57,136 431,142.27 431,150 C431,157.73 417.57,164 401,164 C384.43,164 371,157.73 371,150 Z" style="stroke-width: 1; stroke: rgb(0, 0, 0); fill: none; fill-opacity: 1;"/></g><g class="composite-shape"><path class="real" d=" M70,150 C70,142.27 83.43,136 100,136 C116.57,136 130,142.27 130,150 C130,157.73 116.57,164 100,164 C83.43,164 70,157.73 70,150 Z" style="stroke-width: 1; stroke: rgb(0, 0, 0); fill: none; fill-opacity: 1;"/></g><g class="composite-shape"><path class="real" d=" M171,100 C171,92.27 184.43,86 201,86 C217.57,86 231,92.27 231,100 C231,107.73 217.57,114 201,114 C184.43,114 171,107.73 171,100 Z" style="stroke-width: 1; stroke: rgb(0, 0, 0); fill: rgb(139, 196, 255); fill-opacity: 0.36;"/></g><g class="arrow-line"><path class="connection real" stroke-dasharray="" d="  M220,110 L280,140" style="stroke: rgb(0, 0, 0); stroke-width: 1; fill: none; fill-opacity: 1;"/></g><g class="arrow-line"><path class="connection real" stroke-dasharray="" d="  M220,160 L280,190" style="stroke: rgb(0, 0, 0); stroke-width: 1; fill: none; fill-opacity: 1;"/></g><g class="arrow-line"><path class="connection real" stroke-dasharray="" d="  M169,150 L132,150" style="stroke: rgb(0, 0, 0); stroke-width: 1; fill: none; fill-opacity: 1;"/><g stroke="#000" transform="matrix(1,-2.4492935982947064e-16,2.4492935982947064e-16,1,130,150)" style="stroke: rgb(0, 0, 0); stroke-width: 1;"><path d=" M10.93,-3.29 Q4.96,-0.45 0,0 Q4.96,0.45 10.93,3.29"/></g></g><g class="arrow-line"><path class="connection real" stroke-dasharray="" d="  M330,151 L369,150.05" style="stroke: rgb(0, 0, 0); stroke-width: 1; fill: none; fill-opacity: 1;"/><g stroke="#000" transform="matrix(-0.9997014897811831,0.024432178152653774,-0.024432178152653774,-0.9997014897811831,371,150)" style="stroke: rgb(0, 0, 0); stroke-width: 1;"><path d=" M10.93,-3.29 Q4.96,-0.45 0,0 Q4.96,0.45 10.93,3.29"/></g></g><g class="arrow-line"><path class="connection real" stroke-dasharray="" d="  M120,140 L169.43,101.23" style="stroke: rgb(0, 0, 0); stroke-width: 1; fill: none; fill-opacity: 1;"/><g stroke="#000" transform="matrix(-0.7868273168999366,0.6171732118133829,-0.6171732118133829,-0.7868273168999366,171.00000000000003,100)" style="stroke: rgb(0, 0, 0); stroke-width: 1;"><path d=" M10.93,-3.29 Q4.96,-0.45 0,0 Q4.96,0.45 10.93,3.29"/></g></g><g class="arrow-line"><path class="connection real" stroke-dasharray="" d="  M120,160 L168.44,198.75" style="stroke: rgb(0, 0, 0); stroke-width: 1; fill: none; fill-opacity: 1;"/><g stroke="#000" transform="matrix(-0.7808667188358012,-0.6246976608044966,0.6246976608044966,-0.7808667188358012,170,200)" style="stroke: rgb(0, 0, 0); stroke-width: 1;"><path d=" M10.93,-3.29 Q4.96,-0.45 0,0 Q4.96,0.45 10.93,3.29"/></g></g><g class="arrow-line"><path class="connection real" stroke-dasharray="" d="  M380,140 L331.56,101.25" style="stroke: rgb(0, 0, 0); stroke-width: 1; fill: none; fill-opacity: 1;"/><g stroke="#000" transform="matrix(0.780866718835802,0.6246976608044955,-0.6246976608044955,0.780866718835802,330,100)" style="stroke: rgb(0, 0, 0); stroke-width: 1;"><path d=" M10.93,-3.29 Q4.96,-0.45 0,0 Q4.96,0.45 10.93,3.29"/></g></g><g class="arrow-line"><path class="connection real" stroke-dasharray="" d="  M380,160 L331.56,198.75" style="stroke: rgb(0, 0, 0); stroke-width: 1; fill: none; fill-opacity: 1;"/><g stroke="#000" transform="matrix(0.7808667188358017,-0.6246976608044958,0.6246976608044958,0.7808667188358017,330,200)" style="stroke: rgb(0, 0, 0); stroke-width: 1;"><path d=" M10.93,-3.29 Q4.96,-0.45 0,0 Q4.96,0.45 10.93,3.29"/></g></g><g class="arrow-line"><path class="connection real" stroke-dasharray="" d="  M270,100 L231,100" style="stroke: rgb(0, 0, 0); stroke-width: 1; fill: none; fill-opacity: 1;"/></g><g class="arrow-line"><path class="connection real" stroke-dasharray="" d="  M270,200 L229,200" style="stroke: rgb(0, 0, 0); stroke-width: 1; fill: none; fill-opacity: 1;"/></g><g/></g><g/><g><g><rect rx="0" ry="0" x="68" y="118" width="16" height="24" style="stroke: rgb(0, 0, 0); stroke-width: 1; fill: rgb(255, 255, 255); fill-opacity: 1;"/></g><g><rect rx="0" ry="0" x="416" y="118" width="16" height="24" style="stroke: rgb(0, 0, 0); stroke-width: 1; fill: rgb(255, 255, 255); fill-opacity: 1;"/></g><g><rect rx="0" ry="0" x="316" y="168" width="16" height="24" style="stroke: rgb(0, 0, 0); stroke-width: 1; fill: rgb(255, 255, 255); fill-opacity: 1;"/></g><g><rect rx="0" ry="0" x="316" y="118" width="16" height="24" style="stroke: rgb(0, 0, 0); stroke-width: 1; fill: rgb(255, 255, 255); fill-opacity: 1;"/></g><g><rect rx="0" ry="0" x="318" y="68" width="16" height="24" style="stroke: rgb(0, 0, 0); stroke-width: 1; fill: rgb(255, 255, 255); fill-opacity: 1;"/></g><g><rect rx="0" ry="0" x="166" y="168" width="16" height="24" style="stroke: rgb(0, 0, 0); stroke-width: 1; fill: rgb(255, 255, 255); fill-opacity: 1;"/></g><g><rect rx="0" ry="0" x="166" y="118" width="16" height="24" style="stroke: rgb(0, 0, 0); stroke-width: 1; fill: rgb(255, 255, 255); fill-opacity: 1;"/></g><g><rect rx="0" ry="0" x="166" y="68" width="16" height="24" style="stroke: rgb(0, 0, 0); stroke-width: 1; fill: rgb(255, 255, 255); fill-opacity: 1;"/></g></g><g/></svg>
        <svg xmlns="http://www.w3.org/2000/svg" xmlns:xlink="http://www.w3.org/1999/xlink" width="660" height="300" style="width:660px;height:300px;font-family:Asana-Math, Asana;background:#FFF;"><g><g><g><text x="173.66668701171875" y="194.6666717529297" style="white-space:pre;stroke:none;fill:rgb(0,0,0);fill-opacity:1;font-size:13.5px;font-family:Arial, Helvetica, sans-serif;font-weight:400;font-style:normal;dominant-baseline:text-before-edge;text-decoration:underline solid rgb(0, 0, 0);">+1</text></g><g><text x="189.0625" y="194.6666717529297" style="white-space:pre;stroke:none;fill:rgb(0,0,0);fill-opacity:1;font-size:13.5px;font-family:Arial, Helvetica, sans-serif;font-weight:400;font-style:normal;dominant-baseline:text-before-edge;text-decoration:none solid rgb(0, 0, 0);">,-1,+1</text></g></g></g><g><g><g><text x="277.66668701171875" y="144.6666717529297" style="white-space:pre;stroke:none;fill:rgb(0,0,0);fill-opacity:1;font-size:13.5px;font-family:Arial, Helvetica, sans-serif;font-weight:400;font-style:normal;dominant-baseline:text-before-edge;text-decoration:underline solid rgb(0, 0, 0);">+1</text></g><g><text x="293.0625" y="144.6666717529297" style="white-space:pre;stroke:none;fill:rgb(0,0,0);fill-opacity:1;font-size:13.5px;font-family:Arial, Helvetica, sans-serif;font-weight:400;font-style:normal;dominant-baseline:text-before-edge;text-decoration:none solid rgb(0, 0, 0);">,-1,-1</text></g></g></g><g><g><g><text x="277.66668701171875" y="193.6666717529297" style="white-space:pre;stroke:none;fill:rgb(0,0,0);fill-opacity:1;font-size:13.5px;font-family:Arial, Helvetica, sans-serif;font-weight:400;font-style:normal;dominant-baseline:text-before-edge;text-decoration:underline solid rgb(0, 0, 0);">-1</text></g><g><text x="289.67706298828125" y="193.6666717529297" style="white-space:pre;stroke:none;fill:rgb(0,0,0);fill-opacity:1;font-size:13.5px;font-family:Arial, Helvetica, sans-serif;font-weight:400;font-style:normal;dominant-baseline:text-before-edge;text-decoration:none solid rgb(0, 0, 0);">,-1,+1</text></g></g></g><g><g><g><text x="71.66665649414062" y="144.6666717529297" style="white-space:pre;stroke:none;fill:rgb(0,0,0);fill-opacity:1;font-size:13.5px;font-family:Arial, Helvetica, sans-serif;font-weight:400;font-style:normal;dominant-baseline:text-before-edge;text-decoration:underline solid rgb(0, 0, 0);">+1</text></g><g><text x="87.0625" y="144.6666717529297" style="white-space:pre;stroke:none;fill:rgb(0,0,0);fill-opacity:1;font-size:13.5px;font-family:Arial, Helvetica, sans-serif;font-weight:400;font-style:normal;dominant-baseline:text-before-edge;text-decoration:none solid rgb(0, 0, 0);">,+1,+1</text></g></g></g><g><g><g><text x="381.66668701171875" y="144.6666717529297" style="white-space:pre;stroke:none;fill:rgb(0,0,0);fill-opacity:1;font-size:13.5px;font-family:Arial, Helvetica, sans-serif;font-weight:400;font-style:normal;dominant-baseline:text-before-edge;text-decoration:underline solid rgb(0, 0, 0);">-1</text></g><g><text x="393.67706298828125" y="144.6666717529297" style="white-space:pre;stroke:none;fill:rgb(0,0,0);fill-opacity:1;font-size:13.5px;font-family:Arial, Helvetica, sans-serif;font-weight:400;font-style:normal;dominant-baseline:text-before-edge;text-decoration:none solid rgb(0, 0, 0);">,-1,-1</text></g></g></g><g><g><g><text x="175.66668701171875" y="93.66667175292969" style="white-space:pre;stroke:none;fill:rgb(0,0,0);fill-opacity:1;font-size:13.5px;font-family:Arial, Helvetica, sans-serif;font-weight:400;font-style:normal;dominant-baseline:text-before-edge;text-decoration:underline solid rgb(0, 0, 0);">+1</text></g><g><text x="191.0625" y="93.66667175292969" style="white-space:pre;stroke:none;fill:rgb(0,0,0);fill-opacity:1;font-size:13.5px;font-family:Arial, Helvetica, sans-serif;font-weight:400;font-style:normal;dominant-baseline:text-before-edge;text-decoration:none solid rgb(0, 0, 0);">,+1,-1</text></g></g></g><g><g><g><text x="173.66668701171875" y="144.6666717529297" style="white-space:pre;stroke:none;fill:rgb(0,0,0);fill-opacity:1;font-size:13.5px;font-family:Arial, Helvetica, sans-serif;font-weight:400;font-style:normal;dominant-baseline:text-before-edge;text-decoration:underline solid rgb(0, 0, 0);">-1</text></g><g><text x="185.67706298828125" y="144.6666717529297" style="white-space:pre;stroke:none;fill:rgb(0,0,0);fill-opacity:1;font-size:13.5px;font-family:Arial, Helvetica, sans-serif;font-weight:400;font-style:normal;dominant-baseline:text-before-edge;text-decoration:none solid rgb(0, 0, 0);">,+1,+1</text></g></g></g><g><g><g><text x="276.66668701171875" y="94.66667175292969" style="white-space:pre;stroke:none;fill:rgb(0,0,0);fill-opacity:1;font-size:13.5px;font-family:Arial, Helvetica, sans-serif;font-weight:400;font-style:normal;dominant-baseline:text-before-edge;text-decoration:underline solid rgb(0, 0, 0);">-1</text></g><g><text x="288.67706298828125" y="94.66667175292969" style="white-space:pre;stroke:none;fill:rgb(0,0,0);fill-opacity:1;font-size:13.5px;font-family:Arial, Helvetica, sans-serif;font-weight:400;font-style:normal;dominant-baseline:text-before-edge;text-decoration:none solid rgb(0, 0, 0);">,+1,-1</text></g></g></g><g><g><g><text x="71.66665649414062" y="121.66667175292969" style="white-space:pre;stroke:none;fill:rgb(0,0,0);fill-opacity:1;font-size:15px;font-family:Arial, Helvetica, sans-serif;font-weight:400;font-style:normal;dominant-baseline:text-before-edge;text-decoration:none solid rgb(0, 0, 0);">5</text></g></g></g><g><g><g><text x="419.66668701171875" y="121.66667175292969" style="white-space:pre;stroke:none;fill:rgb(0,0,0);fill-opacity:1;font-size:15px;font-family:Arial, Helvetica, sans-serif;font-weight:400;font-style:normal;dominant-baseline:text-before-edge;text-decoration:none solid rgb(0, 0, 0);">4</text></g></g></g><g><g><g><text x="319.66668701171875" y="171.6666717529297" style="white-space:pre;stroke:none;fill:rgb(0,0,0);fill-opacity:1;font-size:15px;font-family:Arial, Helvetica, sans-serif;font-weight:400;font-style:normal;dominant-baseline:text-before-edge;text-decoration:none solid rgb(0, 0, 0);">8</text></g></g></g><g><g><g><text x="319.66668701171875" y="121.66667175292969" style="white-space:pre;stroke:none;fill:rgb(0,0,0);fill-opacity:1;font-size:15px;font-family:Arial, Helvetica, sans-serif;font-weight:400;font-style:normal;dominant-baseline:text-before-edge;text-decoration:none solid rgb(0, 0, 0);">3</text></g></g></g><g><g><g><text x="321.66668701171875" y="71.66667175292969" style="white-space:pre;stroke:none;fill:rgb(0,0,0);fill-opacity:1;font-size:15px;font-family:Arial, Helvetica, sans-serif;font-weight:400;font-style:normal;dominant-baseline:text-before-edge;text-decoration:none solid rgb(0, 0, 0);">2</text></g></g></g><g><g><g><text x="169.66668701171875" y="171.6666717529297" style="white-space:pre;stroke:none;fill:rgb(0,0,0);fill-opacity:1;font-size:15px;font-family:Arial, Helvetica, sans-serif;font-weight:400;font-style:normal;dominant-baseline:text-before-edge;text-decoration:none solid rgb(0, 0, 0);">7</text></g></g></g><g><g><g><text x="169.66668701171875" y="121.66667175292969" style="white-space:pre;stroke:none;fill:rgb(0,0,0);fill-opacity:1;font-size:15px;font-family:Arial, Helvetica, sans-serif;font-weight:400;font-style:normal;dominant-baseline:text-before-edge;text-decoration:none solid rgb(0, 0, 0);">6</text></g></g></g><g><g><g><text x="169.66668701171875" y="71.66667175292969" style="white-space:pre;stroke:none;fill:rgb(0,0,0);fill-opacity:1;font-size:15px;font-family:Arial, Helvetica, sans-serif;font-weight:400;font-style:normal;dominant-baseline:text-before-edge;text-decoration:none solid rgb(0, 0, 0);">1</text></g></g></g></svg>
</svg>
